<mxfile host="app.diagrams.net" agent="Mozilla/5.0 (Macintosh; Intel Mac OS X 10_15_7) AppleWebKit/605.1.15 (KHTML, like Gecko) Version/17.5 Safari/605.1.15" version="24.7.6">
  <diagram name="Page-1" id="LwCmUqF6IoyyQt3CyeHW">
    <mxGraphModel dx="1781" dy="622" grid="1" gridSize="10" guides="1" tooltips="1" connect="1" arrows="1" fold="1" page="1" pageScale="1" pageWidth="827" pageHeight="1169" math="0" shadow="0">
      <root>
        <mxCell id="0" />
        <mxCell id="1" parent="0" />
        <mxCell id="KAnZ7Fa2tKtf9aKGgKf9-2" value="" style="edgeStyle=orthogonalEdgeStyle;rounded=0;orthogonalLoop=1;jettySize=auto;html=1;" parent="1" source="KAnZ7Fa2tKtf9aKGgKf9-5" target="KAnZ7Fa2tKtf9aKGgKf9-9" edge="1">
          <mxGeometry relative="1" as="geometry" />
        </mxCell>
        <mxCell id="KAnZ7Fa2tKtf9aKGgKf9-3" value="" style="edgeStyle=orthogonalEdgeStyle;rounded=0;orthogonalLoop=1;jettySize=auto;html=1;" parent="1" source="KAnZ7Fa2tKtf9aKGgKf9-5" target="KAnZ7Fa2tKtf9aKGgKf9-18" edge="1">
          <mxGeometry relative="1" as="geometry" />
        </mxCell>
        <mxCell id="KAnZ7Fa2tKtf9aKGgKf9-4" value="" style="edgeStyle=orthogonalEdgeStyle;rounded=0;orthogonalLoop=1;jettySize=auto;html=1;" parent="1" source="KAnZ7Fa2tKtf9aKGgKf9-5" target="KAnZ7Fa2tKtf9aKGgKf9-41" edge="1">
          <mxGeometry relative="1" as="geometry" />
        </mxCell>
        <mxCell id="9dKirbcF9FzAmbWhTHuT-2" value="" style="edgeStyle=orthogonalEdgeStyle;rounded=0;orthogonalLoop=1;jettySize=auto;html=1;" edge="1" parent="1" source="KAnZ7Fa2tKtf9aKGgKf9-5" target="9dKirbcF9FzAmbWhTHuT-1">
          <mxGeometry relative="1" as="geometry" />
        </mxCell>
        <mxCell id="KAnZ7Fa2tKtf9aKGgKf9-5" value="Vulnerability MindMap" style="ellipse;whiteSpace=wrap;html=1;aspect=fixed;fillColor=#fa6800;fontColor=#000000;strokeColor=#C73500;" parent="1" vertex="1">
          <mxGeometry x="329" y="280" width="140" height="140" as="geometry" />
        </mxCell>
        <mxCell id="KAnZ7Fa2tKtf9aKGgKf9-6" value="" style="edgeStyle=orthogonalEdgeStyle;rounded=0;orthogonalLoop=1;jettySize=auto;html=1;" parent="1" source="KAnZ7Fa2tKtf9aKGgKf9-9" target="KAnZ7Fa2tKtf9aKGgKf9-10" edge="1">
          <mxGeometry relative="1" as="geometry" />
        </mxCell>
        <mxCell id="KAnZ7Fa2tKtf9aKGgKf9-7" value="" style="edgeStyle=orthogonalEdgeStyle;rounded=0;orthogonalLoop=1;jettySize=auto;html=1;" parent="1" source="KAnZ7Fa2tKtf9aKGgKf9-9" target="KAnZ7Fa2tKtf9aKGgKf9-12" edge="1">
          <mxGeometry relative="1" as="geometry" />
        </mxCell>
        <mxCell id="KAnZ7Fa2tKtf9aKGgKf9-8" value="" style="edgeStyle=orthogonalEdgeStyle;rounded=0;orthogonalLoop=1;jettySize=auto;html=1;" parent="1" source="KAnZ7Fa2tKtf9aKGgKf9-9" target="KAnZ7Fa2tKtf9aKGgKf9-13" edge="1">
          <mxGeometry relative="1" as="geometry" />
        </mxCell>
        <mxCell id="KAnZ7Fa2tKtf9aKGgKf9-9" value="&lt;b&gt;XSS&lt;/b&gt;" style="ellipse;whiteSpace=wrap;html=1;aspect=fixed;fillColor=#1ba1e2;fontColor=#ffffff;strokeColor=#006EAF;" parent="1" vertex="1">
          <mxGeometry x="384" y="210" width="30" height="30" as="geometry" />
        </mxCell>
        <mxCell id="KAnZ7Fa2tKtf9aKGgKf9-10" value="&lt;b&gt;R-XSS&lt;/b&gt;" style="whiteSpace=wrap;html=1;" parent="1" vertex="1">
          <mxGeometry x="364.5" y="170" width="69" height="20" as="geometry" />
        </mxCell>
        <mxCell id="KAnZ7Fa2tKtf9aKGgKf9-11" value="" style="edgeStyle=orthogonalEdgeStyle;rounded=0;orthogonalLoop=1;jettySize=auto;html=1;" parent="1" source="KAnZ7Fa2tKtf9aKGgKf9-12" target="KAnZ7Fa2tKtf9aKGgKf9-14" edge="1">
          <mxGeometry relative="1" as="geometry" />
        </mxCell>
        <mxCell id="KAnZ7Fa2tKtf9aKGgKf9-12" value="&lt;b&gt;DOM_XSS&lt;/b&gt;" style="whiteSpace=wrap;html=1;" parent="1" vertex="1">
          <mxGeometry x="450" y="170" width="60" height="20" as="geometry" />
        </mxCell>
        <mxCell id="KAnZ7Fa2tKtf9aKGgKf9-13" value="&lt;b&gt;Stored XSS&lt;/b&gt;" style="whiteSpace=wrap;html=1;" parent="1" vertex="1">
          <mxGeometry x="270" y="170" width="79" height="25" as="geometry" />
        </mxCell>
        <mxCell id="KAnZ7Fa2tKtf9aKGgKf9-14" value="&lt;font style=&quot;font-size: 12px;&quot;&gt;Source - entry point of attack eg. user input field&lt;/font&gt;&lt;div&gt;&lt;font style=&quot;font-size: 12px;&quot;&gt;Sink - Where payload is reflected eg. innerhtml&lt;/font&gt;&lt;/div&gt;" style="whiteSpace=wrap;html=1;" parent="1" vertex="1">
          <mxGeometry x="385" y="81.25" width="190" height="60" as="geometry" />
        </mxCell>
        <mxCell id="KAnZ7Fa2tKtf9aKGgKf9-15" value="" style="edgeStyle=orthogonalEdgeStyle;rounded=0;orthogonalLoop=1;jettySize=auto;html=1;entryX=0;entryY=0.5;entryDx=0;entryDy=0;" parent="1" source="KAnZ7Fa2tKtf9aKGgKf9-18" target="KAnZ7Fa2tKtf9aKGgKf9-19" edge="1">
          <mxGeometry relative="1" as="geometry" />
        </mxCell>
        <mxCell id="KAnZ7Fa2tKtf9aKGgKf9-16" value="" style="edgeStyle=orthogonalEdgeStyle;rounded=0;orthogonalLoop=1;jettySize=auto;html=1;" parent="1" source="KAnZ7Fa2tKtf9aKGgKf9-18" target="KAnZ7Fa2tKtf9aKGgKf9-20" edge="1">
          <mxGeometry relative="1" as="geometry" />
        </mxCell>
        <mxCell id="KAnZ7Fa2tKtf9aKGgKf9-17" value="" style="edgeStyle=orthogonalEdgeStyle;rounded=0;orthogonalLoop=1;jettySize=auto;html=1;" parent="1" source="KAnZ7Fa2tKtf9aKGgKf9-18" target="KAnZ7Fa2tKtf9aKGgKf9-21" edge="1">
          <mxGeometry relative="1" as="geometry" />
        </mxCell>
        <mxCell id="KAnZ7Fa2tKtf9aKGgKf9-18" value="CSRF" style="ellipse;whiteSpace=wrap;html=1;fillColor=#1ba1e2;fontColor=#ffffff;strokeColor=#006EAF;" parent="1" vertex="1">
          <mxGeometry x="510" y="335" width="40" height="30" as="geometry" />
        </mxCell>
        <mxCell id="KAnZ7Fa2tKtf9aKGgKf9-19" value="Double Submit Cookie(MITM &amp;amp; Sub-domain takeover issues)" style="whiteSpace=wrap;html=1;" parent="1" vertex="1">
          <mxGeometry x="550" y="280" width="140" height="50" as="geometry" />
        </mxCell>
        <mxCell id="KAnZ7Fa2tKtf9aKGgKf9-20" value="Signed Double Submit Cookie" style="whiteSpace=wrap;html=1;" parent="1" vertex="1">
          <mxGeometry x="570" y="335" width="120" height="30" as="geometry" />
        </mxCell>
        <mxCell id="KAnZ7Fa2tKtf9aKGgKf9-21" value="Ruby _method overirde" style="whiteSpace=wrap;html=1;" parent="1" vertex="1">
          <mxGeometry x="465" y="400" width="130" height="20" as="geometry" />
        </mxCell>
        <mxCell id="KAnZ7Fa2tKtf9aKGgKf9-22" value="" style="endArrow=classic;html=1;rounded=0;exitX=1;exitY=1;exitDx=0;exitDy=0;" parent="1" source="KAnZ7Fa2tKtf9aKGgKf9-18" target="KAnZ7Fa2tKtf9aKGgKf9-23" edge="1">
          <mxGeometry width="50" height="50" relative="1" as="geometry">
            <mxPoint x="390" y="350" as="sourcePoint" />
            <mxPoint x="630" y="400" as="targetPoint" />
          </mxGeometry>
        </mxCell>
        <mxCell id="KAnZ7Fa2tKtf9aKGgKf9-23" value="ActionScript-JSON based CSRF&lt;div&gt;Download swf, redirector script, location header has final URL&lt;/div&gt;" style="rounded=1;whiteSpace=wrap;html=1;" parent="1" vertex="1">
          <mxGeometry x="630" y="372.5" width="130" height="95" as="geometry" />
        </mxCell>
        <mxCell id="KAnZ7Fa2tKtf9aKGgKf9-24" value="" style="endArrow=classic;html=1;rounded=0;entryX=0;entryY=0.5;entryDx=0;entryDy=0;" parent="1" target="KAnZ7Fa2tKtf9aKGgKf9-26" edge="1">
          <mxGeometry width="50" height="50" relative="1" as="geometry">
            <mxPoint x="450" y="300" as="sourcePoint" />
            <mxPoint x="540" y="230" as="targetPoint" />
          </mxGeometry>
        </mxCell>
        <mxCell id="KAnZ7Fa2tKtf9aKGgKf9-25" value="" style="edgeStyle=orthogonalEdgeStyle;rounded=0;orthogonalLoop=1;jettySize=auto;html=1;" parent="1" source="KAnZ7Fa2tKtf9aKGgKf9-26" target="KAnZ7Fa2tKtf9aKGgKf9-27" edge="1">
          <mxGeometry relative="1" as="geometry" />
        </mxCell>
        <mxCell id="KAnZ7Fa2tKtf9aKGgKf9-26" value="Open Redirect" style="ellipse;whiteSpace=wrap;html=1;aspect=fixed;fillColor=#1ba1e2;fontColor=#ffffff;strokeColor=#006EAF;" parent="1" vertex="1">
          <mxGeometry x="620" y="220" width="50" height="50" as="geometry" />
        </mxCell>
        <mxCell id="KAnZ7Fa2tKtf9aKGgKf9-27" value="&lt;b&gt;Header Based&amp;nbsp;&lt;/b&gt;" style="whiteSpace=wrap;html=1;" parent="1" vertex="1">
          <mxGeometry x="710" y="210" width="90" height="15" as="geometry" />
        </mxCell>
        <mxCell id="KAnZ7Fa2tKtf9aKGgKf9-28" value="" style="endArrow=classic;html=1;rounded=0;exitX=1;exitY=0.5;exitDx=0;exitDy=0;entryX=0;entryY=0.5;entryDx=0;entryDy=0;" parent="1" source="KAnZ7Fa2tKtf9aKGgKf9-26" target="KAnZ7Fa2tKtf9aKGgKf9-29" edge="1">
          <mxGeometry width="50" height="50" relative="1" as="geometry">
            <mxPoint x="500" y="280" as="sourcePoint" />
            <mxPoint x="700" y="238" as="targetPoint" />
          </mxGeometry>
        </mxCell>
        <mxCell id="KAnZ7Fa2tKtf9aKGgKf9-29" value="&lt;b&gt;JS Based&amp;nbsp;&lt;/b&gt;" style="rounded=1;whiteSpace=wrap;html=1;" parent="1" vertex="1">
          <mxGeometry x="710" y="230" width="80" height="20" as="geometry" />
        </mxCell>
        <mxCell id="KAnZ7Fa2tKtf9aKGgKf9-30" value="" style="endArrow=classic;html=1;rounded=0;exitX=1;exitY=0;exitDx=0;exitDy=0;entryX=0;entryY=0.5;entryDx=0;entryDy=0;" parent="1" source="KAnZ7Fa2tKtf9aKGgKf9-5" target="KAnZ7Fa2tKtf9aKGgKf9-32" edge="1">
          <mxGeometry width="50" height="50" relative="1" as="geometry">
            <mxPoint x="500" y="250" as="sourcePoint" />
            <mxPoint x="650" y="150" as="targetPoint" />
          </mxGeometry>
        </mxCell>
        <mxCell id="KAnZ7Fa2tKtf9aKGgKf9-31" value="" style="edgeStyle=orthogonalEdgeStyle;rounded=0;orthogonalLoop=1;jettySize=auto;html=1;" parent="1" source="KAnZ7Fa2tKtf9aKGgKf9-32" target="KAnZ7Fa2tKtf9aKGgKf9-33" edge="1">
          <mxGeometry relative="1" as="geometry" />
        </mxCell>
        <mxCell id="KAnZ7Fa2tKtf9aKGgKf9-32" value="&lt;b&gt;CSP&lt;/b&gt;" style="ellipse;whiteSpace=wrap;html=1;aspect=fixed;fillColor=#1ba1e2;fontColor=#ffffff;strokeColor=#006EAF;" parent="1" vertex="1">
          <mxGeometry x="632.5" y="170" width="30" height="30" as="geometry" />
        </mxCell>
        <mxCell id="KAnZ7Fa2tKtf9aKGgKf9-33" value="&lt;font style=&quot;font-size: 8px;&quot;&gt;generated serverside, protects injection, xss, remote js loading. We can define source for various things using directives&lt;/font&gt;" style="whiteSpace=wrap;html=1;align=left;" parent="1" vertex="1">
          <mxGeometry x="700" y="141.25" width="120" height="58.75" as="geometry" />
        </mxCell>
        <mxCell id="KAnZ7Fa2tKtf9aKGgKf9-34" value="" style="endArrow=classic;html=1;rounded=0;entryX=0.083;entryY=0.658;entryDx=0;entryDy=0;entryPerimeter=0;exitX=1;exitY=0;exitDx=0;exitDy=0;" parent="1" target="KAnZ7Fa2tKtf9aKGgKf9-36" edge="1" source="KAnZ7Fa2tKtf9aKGgKf9-5">
          <mxGeometry width="50" height="50" relative="1" as="geometry">
            <mxPoint x="430" y="290" as="sourcePoint" />
            <mxPoint x="650" y="150" as="targetPoint" />
          </mxGeometry>
        </mxCell>
        <mxCell id="KAnZ7Fa2tKtf9aKGgKf9-35" style="edgeStyle=orthogonalEdgeStyle;rounded=0;orthogonalLoop=1;jettySize=auto;html=1;entryX=0.5;entryY=1;entryDx=0;entryDy=0;" parent="1" source="KAnZ7Fa2tKtf9aKGgKf9-36" target="KAnZ7Fa2tKtf9aKGgKf9-37" edge="1">
          <mxGeometry relative="1" as="geometry" />
        </mxCell>
        <mxCell id="KAnZ7Fa2tKtf9aKGgKf9-36" value="&lt;font style=&quot;font-size: 8px;&quot;&gt;Race Condition&lt;/font&gt;" style="ellipse;whiteSpace=wrap;html=1;aspect=fixed;fillColor=#1ba1e2;fontColor=#ffffff;strokeColor=#006EAF;" parent="1" vertex="1">
          <mxGeometry x="650" y="111.25" width="40" height="40" as="geometry" />
        </mxCell>
        <mxCell id="KAnZ7Fa2tKtf9aKGgKf9-37" value="&lt;font style=&quot;font-size: 8px;&quot;&gt;Multiple Payment, Undelete cards, Submitting flags in CTF&lt;/font&gt;" style="whiteSpace=wrap;html=1;" parent="1" vertex="1">
          <mxGeometry x="700" y="81.25" width="120" height="30" as="geometry" />
        </mxCell>
        <mxCell id="KAnZ7Fa2tKtf9aKGgKf9-38" value="" style="edgeStyle=orthogonalEdgeStyle;rounded=0;orthogonalLoop=1;jettySize=auto;html=1;" parent="1" source="KAnZ7Fa2tKtf9aKGgKf9-41" target="KAnZ7Fa2tKtf9aKGgKf9-42" edge="1">
          <mxGeometry relative="1" as="geometry" />
        </mxCell>
        <mxCell id="KAnZ7Fa2tKtf9aKGgKf9-39" value="" style="edgeStyle=orthogonalEdgeStyle;rounded=0;orthogonalLoop=1;jettySize=auto;html=1;entryX=1;entryY=0.25;entryDx=0;entryDy=0;" parent="1" source="KAnZ7Fa2tKtf9aKGgKf9-41" target="KAnZ7Fa2tKtf9aKGgKf9-43" edge="1">
          <mxGeometry relative="1" as="geometry" />
        </mxCell>
        <mxCell id="KAnZ7Fa2tKtf9aKGgKf9-40" value="" style="edgeStyle=orthogonalEdgeStyle;rounded=0;orthogonalLoop=1;jettySize=auto;html=1;entryX=1;entryY=0.5;entryDx=0;entryDy=0;" parent="1" source="KAnZ7Fa2tKtf9aKGgKf9-41" target="KAnZ7Fa2tKtf9aKGgKf9-44" edge="1">
          <mxGeometry relative="1" as="geometry" />
        </mxCell>
        <mxCell id="KAnZ7Fa2tKtf9aKGgKf9-41" value="SSRF" style="ellipse;whiteSpace=wrap;html=1;aspect=fixed;fillColor=#1ba1e2;fontColor=#ffffff;strokeColor=#006EAF;" parent="1" vertex="1">
          <mxGeometry x="248.25" y="327.5" width="45" height="45" as="geometry" />
        </mxCell>
        <mxCell id="KAnZ7Fa2tKtf9aKGgKf9-42" value="open redirection used as bypass" style="whiteSpace=wrap;html=1;" parent="1" vertex="1">
          <mxGeometry x="77.5" y="335" width="120" height="30" as="geometry" />
        </mxCell>
        <mxCell id="KAnZ7Fa2tKtf9aKGgKf9-43" value="&lt;b&gt;Blind SSRF&lt;/b&gt;" style="rounded=1;whiteSpace=wrap;html=1;" parent="1" vertex="1">
          <mxGeometry x="77.5" y="390" width="120" height="20" as="geometry" />
        </mxCell>
        <mxCell id="KAnZ7Fa2tKtf9aKGgKf9-44" value="SSRF via referrer headers" style="rounded=1;whiteSpace=wrap;html=1;" parent="1" vertex="1">
          <mxGeometry x="77.5" y="288.75" width="120" height="32.5" as="geometry" />
        </mxCell>
        <mxCell id="9dKirbcF9FzAmbWhTHuT-4" value="" style="edgeStyle=orthogonalEdgeStyle;rounded=0;orthogonalLoop=1;jettySize=auto;html=1;" edge="1" parent="1" source="9dKirbcF9FzAmbWhTHuT-1" target="9dKirbcF9FzAmbWhTHuT-3">
          <mxGeometry relative="1" as="geometry" />
        </mxCell>
        <mxCell id="9dKirbcF9FzAmbWhTHuT-1" value="Web Cache Poisioning" style="ellipse;whiteSpace=wrap;html=1;aspect=fixed;fillColor=#1ba1e2;fontColor=#ffffff;strokeColor=#006EAF;" vertex="1" parent="1">
          <mxGeometry x="366.5" y="450" width="65" height="65" as="geometry" />
        </mxCell>
        <mxCell id="9dKirbcF9FzAmbWhTHuT-3" value="Use paramminer to find unkeyed inputs mostly headers , the use that header to poison like x-http-method-override. OR add random header really long and see if u get 400 and then remove it and check if normal URL also sends 400" style="rounded=1;whiteSpace=wrap;html=1;" vertex="1" parent="1">
          <mxGeometry x="293.25" y="540" width="211.5" height="90" as="geometry" />
        </mxCell>
        <mxCell id="9dKirbcF9FzAmbWhTHuT-5" value="" style="endArrow=classic;html=1;rounded=0;exitX=0.729;exitY=0.929;exitDx=0;exitDy=0;exitPerimeter=0;" edge="1" parent="1" source="KAnZ7Fa2tKtf9aKGgKf9-5" target="9dKirbcF9FzAmbWhTHuT-6">
          <mxGeometry width="50" height="50" relative="1" as="geometry">
            <mxPoint x="390" y="470" as="sourcePoint" />
            <mxPoint x="570" y="640" as="targetPoint" />
          </mxGeometry>
        </mxCell>
        <mxCell id="9dKirbcF9FzAmbWhTHuT-8" value="" style="edgeStyle=orthogonalEdgeStyle;rounded=0;orthogonalLoop=1;jettySize=auto;html=1;" edge="1" parent="1" source="9dKirbcF9FzAmbWhTHuT-6" target="9dKirbcF9FzAmbWhTHuT-7">
          <mxGeometry relative="1" as="geometry" />
        </mxCell>
        <mxCell id="9dKirbcF9FzAmbWhTHuT-6" value="HTTP De-Sync Attack" style="ellipse;whiteSpace=wrap;html=1;aspect=fixed;fillColor=#1ba1e2;fontColor=#ffffff;strokeColor=#006EAF;" vertex="1" parent="1">
          <mxGeometry x="530" y="600" width="50" height="50" as="geometry" />
        </mxCell>
        <mxCell id="9dKirbcF9FzAmbWhTHuT-15" value="" style="edgeStyle=orthogonalEdgeStyle;rounded=0;orthogonalLoop=1;jettySize=auto;html=1;" edge="1" parent="1" source="9dKirbcF9FzAmbWhTHuT-7" target="9dKirbcF9FzAmbWhTHuT-14">
          <mxGeometry relative="1" as="geometry">
            <Array as="points">
              <mxPoint x="555" y="730" />
              <mxPoint x="528" y="730" />
            </Array>
          </mxGeometry>
        </mxCell>
        <mxCell id="9dKirbcF9FzAmbWhTHuT-16" style="edgeStyle=orthogonalEdgeStyle;rounded=0;orthogonalLoop=1;jettySize=auto;html=1;" edge="1" parent="1" source="9dKirbcF9FzAmbWhTHuT-7" target="9dKirbcF9FzAmbWhTHuT-17">
          <mxGeometry relative="1" as="geometry">
            <mxPoint x="590" y="760" as="targetPoint" />
            <Array as="points">
              <mxPoint x="555" y="730" />
              <mxPoint x="598" y="730" />
            </Array>
          </mxGeometry>
        </mxCell>
        <mxCell id="9dKirbcF9FzAmbWhTHuT-19" value="" style="edgeStyle=orthogonalEdgeStyle;rounded=0;orthogonalLoop=1;jettySize=auto;html=1;" edge="1" parent="1" target="9dKirbcF9FzAmbWhTHuT-18">
          <mxGeometry relative="1" as="geometry">
            <mxPoint x="550" y="730" as="sourcePoint" />
          </mxGeometry>
        </mxCell>
        <mxCell id="9dKirbcF9FzAmbWhTHuT-7" value="CL.TE / TE.CL" style="rounded=1;whiteSpace=wrap;html=1;" vertex="1" parent="1">
          <mxGeometry x="520" y="670" width="70" height="30" as="geometry" />
        </mxCell>
        <mxCell id="9dKirbcF9FzAmbWhTHuT-14" value="&lt;b&gt;Open De-Sync&lt;/b&gt;" style="whiteSpace=wrap;html=1;rounded=1;" vertex="1" parent="1">
          <mxGeometry x="495" y="760" width="65" height="30" as="geometry" />
        </mxCell>
        <mxCell id="9dKirbcF9FzAmbWhTHuT-17" value="&lt;b&gt;IP Desync&lt;/b&gt;" style="rounded=1;whiteSpace=wrap;html=1;" vertex="1" parent="1">
          <mxGeometry x="562.5" y="760" width="70" height="30" as="geometry" />
        </mxCell>
        <mxCell id="9dKirbcF9FzAmbWhTHuT-18" value="&lt;b&gt;Self Desync&lt;/b&gt;" style="whiteSpace=wrap;html=1;rounded=1;" vertex="1" parent="1">
          <mxGeometry x="640" y="760" width="60" height="30" as="geometry" />
        </mxCell>
        <mxCell id="9dKirbcF9FzAmbWhTHuT-20" value="" style="endArrow=classic;html=1;rounded=0;entryX=0.07;entryY=0.233;entryDx=0;entryDy=0;entryPerimeter=0;" edge="1" parent="1" target="9dKirbcF9FzAmbWhTHuT-21">
          <mxGeometry width="50" height="50" relative="1" as="geometry">
            <mxPoint x="490" y="510" as="sourcePoint" />
            <mxPoint x="570" y="550" as="targetPoint" />
          </mxGeometry>
        </mxCell>
        <mxCell id="9dKirbcF9FzAmbWhTHuT-23" value="" style="edgeStyle=orthogonalEdgeStyle;rounded=0;orthogonalLoop=1;jettySize=auto;html=1;exitX=1;exitY=0.5;exitDx=0;exitDy=0;" edge="1" parent="1" source="9dKirbcF9FzAmbWhTHuT-21" target="9dKirbcF9FzAmbWhTHuT-22">
          <mxGeometry relative="1" as="geometry" />
        </mxCell>
        <mxCell id="9dKirbcF9FzAmbWhTHuT-21" value="SSTI" style="ellipse;whiteSpace=wrap;html=1;aspect=fixed;fillColor=#1ba1e2;fontColor=#ffffff;strokeColor=#006EAF;" vertex="1" parent="1">
          <mxGeometry x="567" y="540" width="43" height="43" as="geometry" />
        </mxCell>
        <mxCell id="9dKirbcF9FzAmbWhTHuT-22" value="Executed server side.User input in injected in template as concatenation not as data without validation. Pass Payload, observe template and pass relevant payload. Use logic less template like mustache and validate User input" style="whiteSpace=wrap;html=1;align=left;" vertex="1" parent="1">
          <mxGeometry x="630" y="590" width="180" height="120" as="geometry" />
        </mxCell>
        <mxCell id="9dKirbcF9FzAmbWhTHuT-25" value="" style="endArrow=classic;html=1;rounded=0;entryX=0;entryY=0.5;entryDx=0;entryDy=0;" edge="1" parent="1" target="9dKirbcF9FzAmbWhTHuT-26">
          <mxGeometry width="50" height="50" relative="1" as="geometry">
            <mxPoint x="490" y="510" as="sourcePoint" />
            <mxPoint x="570" y="510" as="targetPoint" />
          </mxGeometry>
        </mxCell>
        <mxCell id="9dKirbcF9FzAmbWhTHuT-32" value="" style="edgeStyle=orthogonalEdgeStyle;rounded=0;orthogonalLoop=1;jettySize=auto;html=1;" edge="1" parent="1" source="9dKirbcF9FzAmbWhTHuT-26" target="9dKirbcF9FzAmbWhTHuT-31">
          <mxGeometry relative="1" as="geometry" />
        </mxCell>
        <mxCell id="9dKirbcF9FzAmbWhTHuT-26" value="CSTI" style="ellipse;whiteSpace=wrap;html=1;aspect=fixed;fillColor=#1ba1e2;fontColor=#ffffff;strokeColor=#006EAF;" vertex="1" parent="1">
          <mxGeometry x="570" y="500" width="30" height="30" as="geometry" />
        </mxCell>
        <mxCell id="9dKirbcF9FzAmbWhTHuT-31" value="Malcious input is processed by js library so pass javascript based payload like &amp;nbsp;alert, &amp;nbsp;constructor.constructor(alert)" style="whiteSpace=wrap;html=1;" vertex="1" parent="1">
          <mxGeometry x="635" y="485" width="165" height="60" as="geometry" />
        </mxCell>
        <mxCell id="9dKirbcF9FzAmbWhTHuT-34" value="" style="endArrow=classic;html=1;rounded=0;exitX=0;exitY=1;exitDx=0;exitDy=0;entryX=1;entryY=0;entryDx=0;entryDy=0;" edge="1" parent="1" source="KAnZ7Fa2tKtf9aKGgKf9-5" target="9dKirbcF9FzAmbWhTHuT-36">
          <mxGeometry width="50" height="50" relative="1" as="geometry">
            <mxPoint x="180" y="530" as="sourcePoint" />
            <mxPoint x="160" y="530" as="targetPoint" />
            <Array as="points">
              <mxPoint x="260" y="460" />
            </Array>
          </mxGeometry>
        </mxCell>
        <mxCell id="9dKirbcF9FzAmbWhTHuT-38" value="" style="edgeStyle=orthogonalEdgeStyle;rounded=0;orthogonalLoop=1;jettySize=auto;html=1;" edge="1" parent="1" source="9dKirbcF9FzAmbWhTHuT-36" target="9dKirbcF9FzAmbWhTHuT-37">
          <mxGeometry relative="1" as="geometry" />
        </mxCell>
        <mxCell id="9dKirbcF9FzAmbWhTHuT-40" value="" style="edgeStyle=orthogonalEdgeStyle;rounded=0;orthogonalLoop=1;jettySize=auto;html=1;" edge="1" parent="1" source="9dKirbcF9FzAmbWhTHuT-36" target="9dKirbcF9FzAmbWhTHuT-39">
          <mxGeometry relative="1" as="geometry">
            <Array as="points">
              <mxPoint x="105" y="508" />
              <mxPoint x="105" y="562" />
            </Array>
          </mxGeometry>
        </mxCell>
        <mxCell id="9dKirbcF9FzAmbWhTHuT-43" style="edgeStyle=orthogonalEdgeStyle;rounded=0;orthogonalLoop=1;jettySize=auto;html=1;entryX=0.5;entryY=0;entryDx=0;entryDy=0;" edge="1" parent="1" source="9dKirbcF9FzAmbWhTHuT-36" target="9dKirbcF9FzAmbWhTHuT-44">
          <mxGeometry relative="1" as="geometry">
            <mxPoint x="110" y="610" as="targetPoint" />
          </mxGeometry>
        </mxCell>
        <mxCell id="9dKirbcF9FzAmbWhTHuT-46" value="" style="edgeStyle=orthogonalEdgeStyle;rounded=0;orthogonalLoop=1;jettySize=auto;html=1;" edge="1" parent="1" source="9dKirbcF9FzAmbWhTHuT-36" target="9dKirbcF9FzAmbWhTHuT-44">
          <mxGeometry relative="1" as="geometry" />
        </mxCell>
        <mxCell id="9dKirbcF9FzAmbWhTHuT-47" value="" style="edgeStyle=orthogonalEdgeStyle;rounded=0;orthogonalLoop=1;jettySize=auto;html=1;" edge="1" parent="1" source="9dKirbcF9FzAmbWhTHuT-36" target="9dKirbcF9FzAmbWhTHuT-44">
          <mxGeometry relative="1" as="geometry" />
        </mxCell>
        <mxCell id="9dKirbcF9FzAmbWhTHuT-48" value="" style="edgeStyle=orthogonalEdgeStyle;rounded=0;orthogonalLoop=1;jettySize=auto;html=1;" edge="1" parent="1" source="9dKirbcF9FzAmbWhTHuT-36" target="9dKirbcF9FzAmbWhTHuT-44">
          <mxGeometry relative="1" as="geometry" />
        </mxCell>
        <mxCell id="9dKirbcF9FzAmbWhTHuT-50" value="" style="edgeStyle=orthogonalEdgeStyle;rounded=0;orthogonalLoop=1;jettySize=auto;html=1;" edge="1" parent="1" source="9dKirbcF9FzAmbWhTHuT-36" target="9dKirbcF9FzAmbWhTHuT-49">
          <mxGeometry relative="1" as="geometry" />
        </mxCell>
        <mxCell id="9dKirbcF9FzAmbWhTHuT-36" value="XXE" style="ellipse;whiteSpace=wrap;html=1;aspect=fixed;fillColor=#1ba1e2;fontColor=#ffffff;strokeColor=#006EAF;" vertex="1" parent="1">
          <mxGeometry x="140" y="485" width="45" height="45" as="geometry" />
        </mxCell>
        <mxCell id="9dKirbcF9FzAmbWhTHuT-37" value="&lt;b&gt;read sensitive file&lt;/b&gt;" style="ellipse;whiteSpace=wrap;html=1;" vertex="1" parent="1">
          <mxGeometry x="17.5" y="486.87" width="60" height="41.25" as="geometry" />
        </mxCell>
        <mxCell id="9dKirbcF9FzAmbWhTHuT-39" value="&lt;b&gt;SSRF based XXE&lt;/b&gt;" style="ellipse;whiteSpace=wrap;html=1;aspect=fixed;" vertex="1" parent="1">
          <mxGeometry x="20" y="534" width="55" height="55" as="geometry" />
        </mxCell>
        <mxCell id="9dKirbcF9FzAmbWhTHuT-44" value="&lt;b&gt;XInclude Attack&lt;/b&gt;" style="ellipse;whiteSpace=wrap;html=1;aspect=fixed;" vertex="1" parent="1">
          <mxGeometry x="77.5" y="585" width="57" height="57" as="geometry" />
        </mxCell>
        <mxCell id="9dKirbcF9FzAmbWhTHuT-49" value="&lt;b&gt;XML Bomb&lt;/b&gt;" style="ellipse;whiteSpace=wrap;html=1;" vertex="1" parent="1">
          <mxGeometry x="122.5" y="550" width="80" height="30" as="geometry" />
        </mxCell>
        <mxCell id="9dKirbcF9FzAmbWhTHuT-51" value="" style="endArrow=classic;html=1;rounded=0;entryX=0.5;entryY=0;entryDx=0;entryDy=0;" edge="1" parent="1" target="9dKirbcF9FzAmbWhTHuT-52">
          <mxGeometry width="50" height="50" relative="1" as="geometry">
            <mxPoint x="260" y="460" as="sourcePoint" />
            <mxPoint x="200" y="650" as="targetPoint" />
          </mxGeometry>
        </mxCell>
        <mxCell id="9dKirbcF9FzAmbWhTHuT-54" value="" style="edgeStyle=orthogonalEdgeStyle;rounded=0;orthogonalLoop=1;jettySize=auto;html=1;" edge="1" parent="1" source="9dKirbcF9FzAmbWhTHuT-52" target="9dKirbcF9FzAmbWhTHuT-53">
          <mxGeometry relative="1" as="geometry" />
        </mxCell>
        <mxCell id="9dKirbcF9FzAmbWhTHuT-60" value="" style="edgeStyle=orthogonalEdgeStyle;rounded=0;orthogonalLoop=1;jettySize=auto;html=1;" edge="1" parent="1" source="9dKirbcF9FzAmbWhTHuT-52" target="9dKirbcF9FzAmbWhTHuT-59">
          <mxGeometry relative="1" as="geometry" />
        </mxCell>
        <mxCell id="9dKirbcF9FzAmbWhTHuT-52" value="SAML" style="ellipse;whiteSpace=wrap;html=1;aspect=fixed;fillColor=#1ba1e2;fontColor=#ffffff;strokeColor=#006EAF;" vertex="1" parent="1">
          <mxGeometry x="160" y="623.25" width="55" height="55" as="geometry" />
        </mxCell>
        <mxCell id="9dKirbcF9FzAmbWhTHuT-56" value="" style="edgeStyle=orthogonalEdgeStyle;rounded=0;orthogonalLoop=1;jettySize=auto;html=1;" edge="1" parent="1" source="9dKirbcF9FzAmbWhTHuT-53" target="9dKirbcF9FzAmbWhTHuT-55">
          <mxGeometry relative="1" as="geometry" />
        </mxCell>
        <mxCell id="9dKirbcF9FzAmbWhTHuT-58" value="" style="edgeStyle=orthogonalEdgeStyle;rounded=0;orthogonalLoop=1;jettySize=auto;html=1;" edge="1" parent="1" source="9dKirbcF9FzAmbWhTHuT-53" target="9dKirbcF9FzAmbWhTHuT-57">
          <mxGeometry relative="1" as="geometry" />
        </mxCell>
        <mxCell id="9dKirbcF9FzAmbWhTHuT-53" value="1. user login into app&lt;div&gt;2. target webapp generates SAML req&lt;/div&gt;&lt;div&gt;3. Browser redirects user to IdP like Auth0&lt;/div&gt;&lt;div&gt;4. Auth0 parses SAML req and authenticates user&lt;/div&gt;&lt;div&gt;5. Auth0 returns encoded SAML response&lt;/div&gt;&lt;div&gt;6. Browser sends SAML response to SP&lt;/div&gt;&lt;div&gt;7. On successful verification user is allowed to login&lt;/div&gt;" style="rounded=1;whiteSpace=wrap;html=1;align=left;" vertex="1" parent="1">
          <mxGeometry x="-210" y="600" width="280" height="101.5" as="geometry" />
        </mxCell>
        <mxCell id="9dKirbcF9FzAmbWhTHuT-55" value="&lt;b&gt;SP initiated eg. gmail&lt;/b&gt;" style="whiteSpace=wrap;html=1;align=left;rounded=1;" vertex="1" parent="1">
          <mxGeometry x="-210" y="740" width="131" height="20" as="geometry" />
        </mxCell>
        <mxCell id="9dKirbcF9FzAmbWhTHuT-57" value="&lt;b&gt;IdP initiated eg. Login into panel and then accessapps&lt;/b&gt;" style="whiteSpace=wrap;html=1;align=left;rounded=1;" vertex="1" parent="1">
          <mxGeometry x="-60" y="732.5" width="160" height="35" as="geometry" />
        </mxCell>
        <mxCell id="9dKirbcF9FzAmbWhTHuT-62" value="" style="edgeStyle=orthogonalEdgeStyle;rounded=0;orthogonalLoop=1;jettySize=auto;html=1;" edge="1" parent="1" source="9dKirbcF9FzAmbWhTHuT-59" target="9dKirbcF9FzAmbWhTHuT-61">
          <mxGeometry relative="1" as="geometry" />
        </mxCell>
        <mxCell id="9dKirbcF9FzAmbWhTHuT-59" value="SAML Signature" style="ellipse;whiteSpace=wrap;html=1;fillColor=#b1ddf0;strokeColor=#10739e;" vertex="1" parent="1">
          <mxGeometry x="157.5" y="790" width="60" height="34.75" as="geometry" />
        </mxCell>
        <mxCell id="9dKirbcF9FzAmbWhTHuT-70" value="" style="edgeStyle=orthogonalEdgeStyle;rounded=0;orthogonalLoop=1;jettySize=auto;html=1;" edge="1" parent="1" source="9dKirbcF9FzAmbWhTHuT-61" target="9dKirbcF9FzAmbWhTHuT-69">
          <mxGeometry relative="1" as="geometry" />
        </mxCell>
        <mxCell id="9dKirbcF9FzAmbWhTHuT-71" style="edgeStyle=orthogonalEdgeStyle;rounded=0;orthogonalLoop=1;jettySize=auto;html=1;exitX=0.25;exitY=1;exitDx=0;exitDy=0;entryX=0.5;entryY=0;entryDx=0;entryDy=0;" edge="1" parent="1">
          <mxGeometry relative="1" as="geometry">
            <mxPoint x="-150" y="880" as="targetPoint" />
            <mxPoint x="-87.49999999999977" y="832.3700000000001" as="sourcePoint" />
            <Array as="points">
              <mxPoint x="-87" y="850" />
              <mxPoint x="-150" y="850" />
            </Array>
          </mxGeometry>
        </mxCell>
        <mxCell id="9dKirbcF9FzAmbWhTHuT-73" style="edgeStyle=orthogonalEdgeStyle;rounded=0;orthogonalLoop=1;jettySize=auto;html=1;exitX=0.25;exitY=1;exitDx=0;exitDy=0;entryX=0.5;entryY=0;entryDx=0;entryDy=0;" edge="1" parent="1" source="9dKirbcF9FzAmbWhTHuT-61" target="9dKirbcF9FzAmbWhTHuT-74">
          <mxGeometry relative="1" as="geometry">
            <mxPoint x="-70" y="880" as="targetPoint" />
          </mxGeometry>
        </mxCell>
        <mxCell id="9dKirbcF9FzAmbWhTHuT-81" value="" style="edgeStyle=orthogonalEdgeStyle;rounded=0;orthogonalLoop=1;jettySize=auto;html=1;" edge="1" parent="1" source="9dKirbcF9FzAmbWhTHuT-61" target="9dKirbcF9FzAmbWhTHuT-80">
          <mxGeometry relative="1" as="geometry" />
        </mxCell>
        <mxCell id="9dKirbcF9FzAmbWhTHuT-84" style="edgeStyle=orthogonalEdgeStyle;rounded=0;orthogonalLoop=1;jettySize=auto;html=1;exitX=0.75;exitY=1;exitDx=0;exitDy=0;entryX=0.5;entryY=0;entryDx=0;entryDy=0;" edge="1" parent="1" source="9dKirbcF9FzAmbWhTHuT-61" target="9dKirbcF9FzAmbWhTHuT-85">
          <mxGeometry relative="1" as="geometry">
            <mxPoint x="150" y="880" as="targetPoint" />
          </mxGeometry>
        </mxCell>
        <mxCell id="9dKirbcF9FzAmbWhTHuT-61" value="(DS)Detached Signature - sig and response alag alag (EnS)Enveloped Sig. - Response ke ander Signature (ES)Enveloping sig - signature ke ander repsonse" style="whiteSpace=wrap;html=1;" vertex="1" parent="1">
          <mxGeometry x="-155.5" y="782.38" width="290" height="49.99" as="geometry" />
        </mxCell>
        <mxCell id="9dKirbcF9FzAmbWhTHuT-69" value="&lt;b&gt;XSW1 (ES)&lt;/b&gt;" style="whiteSpace=wrap;html=1;" vertex="1" parent="1">
          <mxGeometry x="-240" y="880" width="60" height="30" as="geometry" />
        </mxCell>
        <mxCell id="9dKirbcF9FzAmbWhTHuT-72" value="&lt;b&gt;XSW2 (DS)&lt;/b&gt;" style="rounded=1;whiteSpace=wrap;html=1;" vertex="1" parent="1">
          <mxGeometry x="-170" y="880" width="60" height="30" as="geometry" />
        </mxCell>
        <mxCell id="9dKirbcF9FzAmbWhTHuT-74" value="&lt;b&gt;XSW3-8&lt;/b&gt;" style="rounded=1;whiteSpace=wrap;html=1;" vertex="1" parent="1">
          <mxGeometry x="-105" y="880" width="70" height="30" as="geometry" />
        </mxCell>
        <mxCell id="9dKirbcF9FzAmbWhTHuT-80" value="&lt;b&gt;XML signature Exclusion - remove sig&lt;/b&gt;" style="whiteSpace=wrap;html=1;" vertex="1" parent="1">
          <mxGeometry x="-30" y="880" width="142.5" height="30" as="geometry" />
        </mxCell>
        <mxCell id="9dKirbcF9FzAmbWhTHuT-85" value="&lt;b&gt;Certificate Faking&lt;/b&gt;" style="rounded=1;whiteSpace=wrap;html=1;" vertex="1" parent="1">
          <mxGeometry x="117.5" y="880" width="85" height="30" as="geometry" />
        </mxCell>
        <mxCell id="9dKirbcF9FzAmbWhTHuT-86" value="" style="endArrow=classic;html=1;rounded=0;entryX=0.5;entryY=0;entryDx=0;entryDy=0;" edge="1" parent="1" target="9dKirbcF9FzAmbWhTHuT-87">
          <mxGeometry width="50" height="50" relative="1" as="geometry">
            <mxPoint x="260" y="460" as="sourcePoint" />
            <mxPoint x="270" y="660" as="targetPoint" />
          </mxGeometry>
        </mxCell>
        <mxCell id="9dKirbcF9FzAmbWhTHuT-89" value="" style="edgeStyle=orthogonalEdgeStyle;rounded=0;orthogonalLoop=1;jettySize=auto;html=1;" edge="1" parent="1" source="9dKirbcF9FzAmbWhTHuT-87" target="9dKirbcF9FzAmbWhTHuT-88">
          <mxGeometry relative="1" as="geometry" />
        </mxCell>
        <mxCell id="9dKirbcF9FzAmbWhTHuT-87" value="OAuth" style="ellipse;whiteSpace=wrap;html=1;aspect=fixed;fillColor=#1ba1e2;fontColor=#ffffff;strokeColor=#006EAF;" vertex="1" parent="1">
          <mxGeometry x="230" y="678.25" width="40" height="40" as="geometry" />
        </mxCell>
        <mxCell id="9dKirbcF9FzAmbWhTHuT-92" value="" style="edgeStyle=orthogonalEdgeStyle;rounded=0;orthogonalLoop=1;jettySize=auto;html=1;" edge="1" parent="1" source="9dKirbcF9FzAmbWhTHuT-88" target="9dKirbcF9FzAmbWhTHuT-91">
          <mxGeometry relative="1" as="geometry" />
        </mxCell>
        <mxCell id="9dKirbcF9FzAmbWhTHuT-88" value="1. User visits magicB app&lt;div&gt;2. user login with fb.com&lt;/div&gt;&lt;div&gt;3. user authenticates with fb.com&lt;/div&gt;&lt;div&gt;4. Authorization happens &amp;amp; scope is defined&lt;/div&gt;&lt;div&gt;5. Auth token given to app&lt;/div&gt;&lt;div&gt;6. auth token +client secret passed to fb to get access token&lt;/div&gt;&lt;div&gt;7. based on access token access is provided&lt;/div&gt;" style="whiteSpace=wrap;html=1;align=left;" vertex="1" parent="1">
          <mxGeometry x="206.5" y="852.38" width="323.5" height="107.62" as="geometry" />
        </mxCell>
        <mxCell id="9dKirbcF9FzAmbWhTHuT-95" value="" style="edgeStyle=orthogonalEdgeStyle;rounded=0;orthogonalLoop=1;jettySize=auto;html=1;entryX=1;entryY=0.5;entryDx=0;entryDy=0;" edge="1" parent="1" source="9dKirbcF9FzAmbWhTHuT-91" target="9dKirbcF9FzAmbWhTHuT-94">
          <mxGeometry relative="1" as="geometry" />
        </mxCell>
        <mxCell id="9dKirbcF9FzAmbWhTHuT-96" style="edgeStyle=orthogonalEdgeStyle;rounded=0;orthogonalLoop=1;jettySize=auto;html=1;exitX=0;exitY=0.5;exitDx=0;exitDy=0;entryX=1;entryY=0.5;entryDx=0;entryDy=0;" edge="1" parent="1" source="9dKirbcF9FzAmbWhTHuT-91" target="9dKirbcF9FzAmbWhTHuT-97">
          <mxGeometry relative="1" as="geometry">
            <mxPoint x="100" y="970" as="targetPoint" />
            <Array as="points">
              <mxPoint x="130" y="1055" />
              <mxPoint x="130" y="980" />
            </Array>
          </mxGeometry>
        </mxCell>
        <mxCell id="9dKirbcF9FzAmbWhTHuT-98" style="edgeStyle=orthogonalEdgeStyle;rounded=0;orthogonalLoop=1;jettySize=auto;html=1;exitX=0;exitY=0.75;exitDx=0;exitDy=0;entryX=1;entryY=0.5;entryDx=0;entryDy=0;" edge="1" parent="1" source="9dKirbcF9FzAmbWhTHuT-91" target="9dKirbcF9FzAmbWhTHuT-102">
          <mxGeometry relative="1" as="geometry">
            <mxPoint x="80" y="1020" as="targetPoint" />
            <Array as="points">
              <mxPoint x="177" y="1055" />
              <mxPoint x="129" y="1055" />
              <mxPoint x="129" y="1015" />
            </Array>
          </mxGeometry>
        </mxCell>
        <mxCell id="9dKirbcF9FzAmbWhTHuT-104" value="" style="edgeStyle=orthogonalEdgeStyle;rounded=0;orthogonalLoop=1;jettySize=auto;html=1;" edge="1" parent="1" source="9dKirbcF9FzAmbWhTHuT-91" target="9dKirbcF9FzAmbWhTHuT-102">
          <mxGeometry relative="1" as="geometry">
            <Array as="points">
              <mxPoint x="128" y="1055" />
              <mxPoint x="128" y="1015" />
            </Array>
          </mxGeometry>
        </mxCell>
        <mxCell id="9dKirbcF9FzAmbWhTHuT-106" style="edgeStyle=orthogonalEdgeStyle;rounded=0;orthogonalLoop=1;jettySize=auto;html=1;entryX=1;entryY=0.5;entryDx=0;entryDy=0;" edge="1" parent="1" target="9dKirbcF9FzAmbWhTHuT-107">
          <mxGeometry relative="1" as="geometry">
            <mxPoint x="80" y="1070" as="targetPoint" />
            <mxPoint x="177" y="1055" as="sourcePoint" />
          </mxGeometry>
        </mxCell>
        <mxCell id="9dKirbcF9FzAmbWhTHuT-108" style="edgeStyle=orthogonalEdgeStyle;rounded=0;orthogonalLoop=1;jettySize=auto;html=1;entryX=1;entryY=0.25;entryDx=0;entryDy=0;" edge="1" parent="1" source="9dKirbcF9FzAmbWhTHuT-91" target="9dKirbcF9FzAmbWhTHuT-109">
          <mxGeometry relative="1" as="geometry">
            <mxPoint x="100" y="1110" as="targetPoint" />
            <Array as="points">
              <mxPoint x="130" y="1055" />
              <mxPoint x="130" y="1118" />
              <mxPoint x="110" y="1118" />
            </Array>
          </mxGeometry>
        </mxCell>
        <mxCell id="9dKirbcF9FzAmbWhTHuT-111" style="edgeStyle=orthogonalEdgeStyle;rounded=0;orthogonalLoop=1;jettySize=auto;html=1;entryX=1;entryY=0.5;entryDx=0;entryDy=0;" edge="1" parent="1">
          <mxGeometry relative="1" as="geometry">
            <mxPoint x="90" y="1169" as="targetPoint" />
            <mxPoint x="215" y="1054" as="sourcePoint" />
            <Array as="points">
              <mxPoint x="215" y="1055" />
              <mxPoint x="130" y="1055" />
              <mxPoint x="130" y="1169" />
            </Array>
          </mxGeometry>
        </mxCell>
        <mxCell id="9dKirbcF9FzAmbWhTHuT-91" value="1. RO, initiates a request with OAuth Client&lt;div&gt;2. OAuth Client sends the RO a redirection to Auth Server(fb.com)&lt;/div&gt;&lt;div&gt;3. RO authenticates &amp;amp; authorises to Authorisation server&lt;/div&gt;&lt;div&gt;4. Authorization server presents a form to RO to grant access&lt;/div&gt;&lt;div&gt;5. RO allows, AS send &lt;b&gt;grantcode&lt;/b&gt; or access token&lt;/div&gt;&lt;div&gt;6. OAuth Client &amp;nbsp;send client ID /Grant code/Client secret or cert to AU&lt;/div&gt;&lt;div&gt;7.If verified, AU send Oauth client &lt;b&gt;access&lt;/b&gt; and &lt;b&gt;refresh&lt;/b&gt; &lt;b&gt;token&lt;/b&gt;&lt;/div&gt;&lt;div&gt;8. Access token is valid for requested resource.&lt;/div&gt;" style="whiteSpace=wrap;html=1;align=left;" vertex="1" parent="1">
          <mxGeometry x="176.5" y="1000" width="383.5" height="110" as="geometry" />
        </mxCell>
        <mxCell id="9dKirbcF9FzAmbWhTHuT-94" value="XSS in redirectURL" style="whiteSpace=wrap;html=1;align=left;fontStyle=1" vertex="1" parent="1">
          <mxGeometry x="-50" y="940" width="130" height="20" as="geometry" />
        </mxCell>
        <mxCell id="9dKirbcF9FzAmbWhTHuT-97" value="State param CSRF" style="rounded=1;whiteSpace=wrap;html=1;fontStyle=1" vertex="1" parent="1">
          <mxGeometry x="-30" y="970" width="112.5" height="20" as="geometry" />
        </mxCell>
        <mxCell id="9dKirbcF9FzAmbWhTHuT-102" value="Access token in Browser" style="rounded=1;whiteSpace=wrap;html=1;fontStyle=1" vertex="1" parent="1">
          <mxGeometry x="-30" y="1000" width="110" height="30" as="geometry" />
        </mxCell>
        <mxCell id="9dKirbcF9FzAmbWhTHuT-107" value="Ever lasting Auth Grant code" style="rounded=1;whiteSpace=wrap;html=1;fontStyle=1" vertex="1" parent="1">
          <mxGeometry x="-27.5" y="1060" width="110" height="30" as="geometry" />
        </mxCell>
        <mxCell id="9dKirbcF9FzAmbWhTHuT-109" value="Cross app token" style="rounded=1;whiteSpace=wrap;html=1;fontStyle=1" vertex="1" parent="1">
          <mxGeometry x="-32.5" y="1110" width="120" height="30" as="geometry" />
        </mxCell>
        <mxCell id="9dKirbcF9FzAmbWhTHuT-112" value="Account hijacking via redirect_uri" style="rounded=1;whiteSpace=wrap;html=1;fontStyle=1" vertex="1" parent="1">
          <mxGeometry x="-32" y="1160" width="122" height="30" as="geometry" />
        </mxCell>
        <mxCell id="9dKirbcF9FzAmbWhTHuT-115" value="" style="endArrow=classic;html=1;rounded=0;entryX=0.067;entryY=0.367;entryDx=0;entryDy=0;entryPerimeter=0;" edge="1" parent="1" target="9dKirbcF9FzAmbWhTHuT-116">
          <mxGeometry width="50" height="50" relative="1" as="geometry">
            <mxPoint x="260" y="460" as="sourcePoint" />
            <mxPoint x="540" y="830" as="targetPoint" />
            <Array as="points">
              <mxPoint x="300" y="740" />
            </Array>
          </mxGeometry>
        </mxCell>
        <mxCell id="9dKirbcF9FzAmbWhTHuT-120" value="" style="edgeStyle=orthogonalEdgeStyle;rounded=0;orthogonalLoop=1;jettySize=auto;html=1;" edge="1" parent="1" source="9dKirbcF9FzAmbWhTHuT-116" target="9dKirbcF9FzAmbWhTHuT-119">
          <mxGeometry relative="1" as="geometry" />
        </mxCell>
        <mxCell id="9dKirbcF9FzAmbWhTHuT-127" style="edgeStyle=orthogonalEdgeStyle;rounded=0;orthogonalLoop=1;jettySize=auto;html=1;exitX=0.5;exitY=1;exitDx=0;exitDy=0;entryX=0;entryY=0.5;entryDx=0;entryDy=0;" edge="1" parent="1" source="9dKirbcF9FzAmbWhTHuT-116" target="9dKirbcF9FzAmbWhTHuT-125">
          <mxGeometry relative="1" as="geometry" />
        </mxCell>
        <mxCell id="9dKirbcF9FzAmbWhTHuT-128" style="edgeStyle=orthogonalEdgeStyle;rounded=0;orthogonalLoop=1;jettySize=auto;html=1;entryX=0;entryY=0.5;entryDx=0;entryDy=0;" edge="1" parent="1" source="9dKirbcF9FzAmbWhTHuT-116" target="9dKirbcF9FzAmbWhTHuT-126">
          <mxGeometry relative="1" as="geometry">
            <Array as="points">
              <mxPoint x="565" y="906" />
            </Array>
          </mxGeometry>
        </mxCell>
        <mxCell id="9dKirbcF9FzAmbWhTHuT-116" value="JWT" style="ellipse;whiteSpace=wrap;html=1;aspect=fixed;fillColor=#1ba1e2;fontColor=#ffffff;strokeColor=#006EAF;" vertex="1" parent="1">
          <mxGeometry x="550" y="820" width="30" height="30" as="geometry" />
        </mxCell>
        <mxCell id="9dKirbcF9FzAmbWhTHuT-119" value="Header - {alg , typ}" style="whiteSpace=wrap;html=1;" vertex="1" parent="1">
          <mxGeometry x="605" y="822.5" width="185" height="25" as="geometry" />
        </mxCell>
        <mxCell id="9dKirbcF9FzAmbWhTHuT-125" value="Payload - {data}" style="whiteSpace=wrap;html=1;" vertex="1" parent="1">
          <mxGeometry x="605" y="855" width="185" height="25" as="geometry" />
        </mxCell>
        <mxCell id="9dKirbcF9FzAmbWhTHuT-130" value="" style="edgeStyle=orthogonalEdgeStyle;rounded=0;orthogonalLoop=1;jettySize=auto;html=1;" edge="1" parent="1" source="9dKirbcF9FzAmbWhTHuT-126" target="9dKirbcF9FzAmbWhTHuT-129">
          <mxGeometry relative="1" as="geometry" />
        </mxCell>
        <mxCell id="9dKirbcF9FzAmbWhTHuT-126" value="Signature - Base64URLSafe(HMACSHA256)" style="whiteSpace=wrap;html=1;" vertex="1" parent="1">
          <mxGeometry x="605" y="883.04" width="185" height="46.96" as="geometry" />
        </mxCell>
        <mxCell id="9dKirbcF9FzAmbWhTHuT-132" value="" style="edgeStyle=orthogonalEdgeStyle;rounded=0;orthogonalLoop=1;jettySize=auto;html=1;" edge="1" parent="1" source="9dKirbcF9FzAmbWhTHuT-129" target="9dKirbcF9FzAmbWhTHuT-131">
          <mxGeometry relative="1" as="geometry">
            <Array as="points">
              <mxPoint x="721" y="1140" />
              <mxPoint x="324" y="1140" />
            </Array>
          </mxGeometry>
        </mxCell>
        <mxCell id="9dKirbcF9FzAmbWhTHuT-129" value="1. JSON&lt;div&gt;2. Create JST signing key and sign algo&lt;/div&gt;&lt;div&gt;3. Creating header {typ, alg}&lt;/div&gt;&lt;div&gt;4. create signature Base64URLSafe(HMACSHA256(&amp;lt;base63header&amp;gt;.&amp;lt;base64payload&amp;gt;)&lt;/div&gt;&lt;div&gt;5. JWT = &amp;lt;header&amp;gt;.&amp;lt;body&amp;gt;.&amp;lt;signature&amp;gt;&lt;/div&gt;&lt;div&gt;6. Verifying JWT&lt;/div&gt;" style="whiteSpace=wrap;html=1;align=left;" vertex="1" parent="1">
          <mxGeometry x="582.5" y="990" width="277.5" height="120" as="geometry" />
        </mxCell>
        <mxCell id="9dKirbcF9FzAmbWhTHuT-131" value="Token Signature Verification?" style="rounded=1;whiteSpace=wrap;html=1;align=left;" vertex="1" parent="1">
          <mxGeometry x="240" y="1180" width="160" height="20" as="geometry" />
        </mxCell>
        <mxCell id="9dKirbcF9FzAmbWhTHuT-133" value="origin - client side or server" style="rounded=1;whiteSpace=wrap;html=1;" vertex="1" parent="1">
          <mxGeometry x="360" y="1210" width="90" height="30" as="geometry" />
        </mxCell>
        <mxCell id="9dKirbcF9FzAmbWhTHuT-135" value="" style="endArrow=classic;html=1;rounded=0;" edge="1" parent="1" target="9dKirbcF9FzAmbWhTHuT-133">
          <mxGeometry width="50" height="50" relative="1" as="geometry">
            <mxPoint x="410" y="1140" as="sourcePoint" />
            <mxPoint x="460" y="1090" as="targetPoint" />
          </mxGeometry>
        </mxCell>
        <mxCell id="9dKirbcF9FzAmbWhTHuT-136" value="" style="endArrow=classic;html=1;rounded=0;" edge="1" parent="1">
          <mxGeometry width="50" height="50" relative="1" as="geometry">
            <mxPoint x="480" y="1140" as="sourcePoint" />
            <mxPoint x="480" y="1180" as="targetPoint" />
          </mxGeometry>
        </mxCell>
        <mxCell id="9dKirbcF9FzAmbWhTHuT-137" value="Duration Check" style="rounded=1;whiteSpace=wrap;html=1;" vertex="1" parent="1">
          <mxGeometry x="450" y="1180" width="70" height="30" as="geometry" />
        </mxCell>
        <mxCell id="9dKirbcF9FzAmbWhTHuT-138" value="RS256 -&amp;gt; HS256&lt;div&gt;None Algorith&lt;/div&gt;" style="rounded=1;whiteSpace=wrap;html=1;" vertex="1" parent="1">
          <mxGeometry x="465" y="1230" width="125" height="30" as="geometry" />
        </mxCell>
        <mxCell id="9dKirbcF9FzAmbWhTHuT-139" value="" style="endArrow=classic;html=1;rounded=0;entryX=0.5;entryY=0;entryDx=0;entryDy=0;" edge="1" parent="1" target="9dKirbcF9FzAmbWhTHuT-138">
          <mxGeometry width="50" height="50" relative="1" as="geometry">
            <mxPoint x="540" y="1140" as="sourcePoint" />
            <mxPoint x="524" y="1230" as="targetPoint" />
          </mxGeometry>
        </mxCell>
        <mxCell id="9dKirbcF9FzAmbWhTHuT-140" value="jku - JWKS - check URL and change it" style="rounded=1;whiteSpace=wrap;html=1;" vertex="1" parent="1">
          <mxGeometry x="577.5" y="1190" width="112.5" height="30" as="geometry" />
        </mxCell>
        <mxCell id="9dKirbcF9FzAmbWhTHuT-141" value="" style="endArrow=classic;html=1;rounded=0;entryX=0.25;entryY=0;entryDx=0;entryDy=0;" edge="1" parent="1" target="9dKirbcF9FzAmbWhTHuT-140">
          <mxGeometry width="50" height="50" relative="1" as="geometry">
            <mxPoint x="606" y="1140" as="sourcePoint" />
            <mxPoint x="630" y="1090" as="targetPoint" />
          </mxGeometry>
        </mxCell>
        <mxCell id="9dKirbcF9FzAmbWhTHuT-142" value="hashcat jwt_token" style="rounded=1;whiteSpace=wrap;html=1;" vertex="1" parent="1">
          <mxGeometry x="680" y="1230" width="110" height="30" as="geometry" />
        </mxCell>
        <mxCell id="9dKirbcF9FzAmbWhTHuT-143" value="" style="endArrow=classic;html=1;rounded=0;entryX=0.364;entryY=0;entryDx=0;entryDy=0;entryPerimeter=0;" edge="1" parent="1" target="9dKirbcF9FzAmbWhTHuT-142">
          <mxGeometry width="50" height="50" relative="1" as="geometry">
            <mxPoint x="670" y="1140" as="sourcePoint" />
            <mxPoint x="720" y="1090" as="targetPoint" />
          </mxGeometry>
        </mxCell>
      </root>
    </mxGraphModel>
  </diagram>
</mxfile>
